<?xml version="1.0" encoding="UTF-8"?>
<svg id="Camada_1" data-name="Camada 1" xmlns="http://www.w3.org/2000/svg" viewBox="0 0 149.04 119.82">
  <path d="m59.35,97.26h82.24c.78-.12,3.02-.57,4.97-2.48,1.76-1.73,2.31-3.7,2.48-4.5v-37.24c-.94-1.62-2.28-3.78-4.03-6.21-1.24-1.7-3.87-5.18-8.69-9.93-3.6-3.55-9.05-8.44-16.6-13.66h-22.34c-.54.03-2.75.21-4.5,2.02-1.2,1.24-1.58,2.63-1.71,3.26v31.86l-80.53-.12c-.76.06-4.51.44-7.14,3.65-1.64,2-2.05,4.13-2.17,5.12v19.71c.19.92.67,2.64,2.02,4.34,1.63,2.05,3.61,2.93,4.5,3.26,2.69.05,5.38.1,8.07.16l43.45.78-.02-.02Z" fill="#2e4374"/>
  <path d="m104.67,37.21v23.17h30.88v-5.63c-1.52-3.13-4.37-7.93-9.47-12.25-2.95-2.5-5.86-4.17-8.22-5.28h-13.19Z" fill="#fff" stroke="#fff" stroke-miterlimit="10"/>
  <path d="m112.45,75.47c11.45-.01,20.94,9.41,21.72,20.64.81,11.71-8.03,22.73-20.02,23.65-12.34.94-23.07-9.21-23.43-21.47-.36-12.15,9.57-22.79,21.72-22.81h.01Z" fill="#323232"/>
  <path d="m37.45,75.47c11.45-.01,20.94,9.41,21.72,20.64.81,11.71-8.03,22.73-20.02,23.65-12.34.94-23.07-9.21-23.43-21.47-.36-12.15,9.57-22.79,21.72-22.81h.01Z" fill="#323232"/>
  <path d="m24.6,96.79c.34-6.17,5.32-11.9,11.79-12.41,7.31-.58,13.82,5.7,13.97,13.03.14,6.83-5.26,13.1-12.1,13.5-7.68.44-14.06-6.69-13.66-14.12Z" fill="#a5acb9"/>
  <path d="m99.68,96.79c.34-6.17,5.32-11.9,11.79-12.41,7.31-.58,13.82,5.7,13.97,13.03.14,6.83-5.26,13.1-12.1,13.5-7.68.44-14.06-6.69-13.66-14.12Z" fill="#a5acb9"/>
  <path d="m20.1,0h15.83c.39.08.85.22,1.34.43.86.38,1.49.86,1.91,1.24,17.33,19.57,34.66,39.14,51.98,58.7l-45.93-.12L22.58,15.79l-.31,27.93c-.24,1.05-1.02,3.76-3.52,6.03-1.9,1.72-3.91,2.38-4.97,2.64l-5.25-.21c-.85-.12-3.47-.61-5.66-2.87-1.85-1.9-2.41-4.03-2.59-4.91-.09-2.71-.18-5.41-.28-8.12.07-.29.33-1.13,1.13-1.73.41-.31.82-.45,1.1-.52.94,0,1.87-.02,2.81-.03.26.07.63.21,1.01.49.53.39.82.85.96,1.11.09,1.69.17,3.38.26,5.07-.02.34-.04,1.3.57,2.28.55.89,1.32,1.3,1.63,1.45.4.09.88.16,1.42.18.59.02,1.1-.02,1.53-.08.34-.07.91-.25,1.45-.72,1.13-.99,1.12-2.45,1.11-2.69V4.93c.3-.71.91-1.88,2.07-3,1.15-1.1,2.34-1.66,3.05-1.93Z" fill="#959595"/>
  <g>
    <path d="m67.71,83.14c9.36-4.66,26.29-4.9,11.86,6.23,6.76-8.94-12.19.86-14.16,1.68.71-1.84,2.29-5.69,2.3-7.91Z" fill="#00a1fc"/>
    <path d="m67.78,80.83c.12-1.93-.01-4.58-.33-6.49,6-2.42,16.7-2.06,17.96,5.75-4.81-3.63-12.23-.98-17.64.75h.01Z" fill="#00a1fc"/>
    <path d="m64.07,67.06c5.28-.2,11.11.49,15.48,3.75.78.45,3.74,3.65,1.88,2.29-4.38-2.67-9.84-2.39-14.62-1.1-.2-1.41-1.71-4.07-2.75-4.94h.01Z" fill="#00a1fc"/>
  </g>
</svg>